<svg xmlns="http://www.w3.org/2000/svg" width="940" height="560" viewBox="0 0 940 560" role="img">
  <style>
    text { font-family: Inter, ui-sans-serif, system-ui, -apple-system, BlinkMacSystemFont, "Segoe UI", sans-serif; fill: #1f2933; }
    .title { font-size: 22px; font-weight: 700; }
    .subtitle { font-size: 13px; fill: #52606d; }
    .label { font-size: 12px; fill: #334e68; }
    .small { font-size: 11px; fill: #627d98; }
    .axis { stroke: #9fb3c8; stroke-width: 1; }
    .grid { stroke: #d9e2ec; stroke-width: 1; }
    .apxm { fill: #2f80ed; }
    .flat { fill: #d64545; }
    .neutral { fill: #f0b429; }
    .good { fill: #2f9e44; }
    .bad { fill: #d64545; }
    .card { fill: #ffffff; stroke: #bcccdc; stroke-width: 1.2; rx: 8; }
  </style>
  <rect width="940" height="560" fill="#f7f9fb"/>
  <text x="60" y="44" class="title">APXM compiler and runtime path</text>
  <text x="60" y="66" class="subtitle">Agent programs become optimized graph artifacts, then execute through graph-aware dispatch.</text>
  <rect x="90" y="88" width="760" height="76" rx="8" fill="#e0f2fe" stroke="#829ab1"/>
  <text x="116" y="119" font-size="18" font-weight="700">Plans + skills</text>
  <text x="116" y="142" class="label">Typed AIS operations, skill bundles, task graphs</text>
  <line x1="470.0" y1="169" x2="470.0" y2="187" stroke="#486581" stroke-width="2"/>
  <path d="M 464.0 180 L 470.0 188 L 476.0 180" fill="none" stroke="#486581" stroke-width="2"/>
  <rect x="90" y="192" width="760" height="76" rx="8" fill="#dcfce7" stroke="#829ab1"/>
  <text x="116" y="223" font-size="18" font-weight="700">APXM compiler</text>
  <text x="116" y="246" class="label">AIR/MLIR, critical-path marking, dispatch lowering</text>
  <line x1="470.0" y1="273" x2="470.0" y2="291" stroke="#486581" stroke-width="2"/>
  <path d="M 464.0 284 L 470.0 292 L 476.0 284" fill="none" stroke="#486581" stroke-width="2"/>
  <rect x="90" y="296" width="760" height="76" rx="8" fill="#fef3c7" stroke="#829ab1"/>
  <text x="116" y="327" font-size="18" font-weight="700">Compiled artifact</text>
  <text x="116" y="350" class="label">.apxmobj with graph, metadata, provenance</text>
  <line x1="470.0" y1="377" x2="470.0" y2="395" stroke="#486581" stroke-width="2"/>
  <path d="M 464.0 388 L 470.0 396 L 476.0 388" fill="none" stroke="#486581" stroke-width="2"/>
  <rect x="90" y="400" width="760" height="76" rx="8" fill="#ede9fe" stroke="#829ab1"/>
  <text x="116" y="431" font-size="18" font-weight="700">APXM runtime</text>
  <text x="116" y="454" class="label">Scheduler, sandbox, router, observability</text>
  <line x1="470.0" y1="481" x2="470.0" y2="499" stroke="#486581" stroke-width="2"/>
  <path d="M 464.0 492 L 470.0 500 L 476.0 492" fill="none" stroke="#486581" stroke-width="2"/>
  <rect x="90" y="504" width="760" height="76" rx="8" fill="#fee2e2" stroke="#829ab1"/>
  <text x="116" y="535" font-size="18" font-weight="700">LLM backends</text>
  <text x="116" y="558" class="label">APXM-vLLM, local frontier, cloud frontier</text>
  <text x="90" y="530" class="small">Figure generated from paper figure script; design summary follows APXM narrative and thesis docs.</text>
</svg>
